<svg width="530" height="309" viewBox="0 0 530 309" fill="none" xmlns="http://www.w3.org/2000/svg">
<g filter="url(#filter0_d_1_5)">
<path d="M62.9356 75.8453C56.2439 75.8453 50.8906 73.873 46.8757 69.9285C42.8607 65.9839 40.8532 60.7363 40.8532 54.1855V21.7487C40.8532 15.1275 42.8607 9.87989 46.8757 6.00579C50.8906 2.13169 56.2439 0.194645 62.9356 0.194645C69.6272 0.194645 74.9805 2.13169 78.9955 6.00579C83.0809 9.87989 85.1236 15.1275 85.1236 21.7487V22.6996C85.1236 23.0518 84.9827 23.3688 84.701 23.6506C84.4897 23.8619 84.2079 23.9675 83.8557 23.9675L68.8524 24.6015C68.0071 24.6015 67.5845 24.1788 67.5845 23.3336V20.4808C67.5845 18.8608 67.1619 17.5929 66.3166 16.6772C65.4714 15.691 64.3443 15.198 62.9356 15.198C61.5973 15.198 60.5055 15.691 59.6602 16.6772C58.8149 17.5929 58.3923 18.8608 58.3923 20.4808V55.6647C58.3923 57.2144 58.8149 58.4822 59.6602 59.4684C60.5055 60.3841 61.5973 60.8419 62.9356 60.8419C64.3443 60.8419 65.4714 60.3841 66.3166 59.4684C67.1619 58.4822 67.5845 57.2144 67.5845 55.6647V52.6007C67.5845 52.2485 67.6902 51.9667 67.9015 51.7554C68.1832 51.4736 68.5002 51.3328 68.8524 51.3328L83.8557 51.9667C84.2079 51.9667 84.4897 52.1076 84.701 52.3893C84.9827 52.6007 85.1236 52.8824 85.1236 53.2346V54.1855C85.1236 60.7363 83.0809 65.9839 78.9955 69.9285C74.9805 73.873 69.6272 75.8453 62.9356 75.8453ZM120.173 75C119.398 75 118.905 74.6478 118.694 73.9434L111.509 45.9442C111.439 45.6625 111.263 45.5216 110.981 45.5216H109.396C109.044 45.5216 108.868 45.6977 108.868 46.0499V73.7321C108.868 74.0843 108.727 74.4013 108.445 74.683C108.234 74.8943 107.952 75 107.6 75H92.5964C92.2442 75 91.9272 74.8943 91.6455 74.683C91.4342 74.4013 91.3285 74.0843 91.3285 73.7321V2.30779C91.3285 1.9556 91.4342 1.67384 91.6455 1.46253C91.9272 1.18078 92.2442 1.0399 92.5964 1.0399H115.313C119.398 1.0399 123.026 2.02603 126.195 3.9983C129.365 5.90013 131.795 8.61201 133.486 12.1339C135.247 15.5854 136.127 19.5299 136.127 23.9675C136.127 27.9121 135.388 31.4692 133.908 34.6389C132.5 37.7382 130.492 40.2388 127.886 42.1406C127.745 42.211 127.639 42.3167 127.569 42.4576C127.499 42.528 127.499 42.6337 127.569 42.7745L136.655 73.5208L136.761 73.9434C136.761 74.6478 136.374 75 135.599 75H120.173ZM109.396 16.0432C109.044 16.0432 108.868 16.2193 108.868 16.5715V31.5749C108.868 31.927 109.044 32.1031 109.396 32.1031H112.354C114.256 32.1031 115.771 31.3988 116.898 29.99C118.025 28.5812 118.588 26.6442 118.588 24.1788C118.588 21.5726 118.025 19.5651 116.898 18.1564C115.771 16.7476 114.256 16.0432 112.354 16.0432H109.396ZM182.769 14.7753C182.769 15.1275 182.628 15.4445 182.346 15.7263C182.135 15.9376 181.853 16.0432 181.501 16.0432H160.264C159.912 16.0432 159.736 16.2193 159.736 16.5715V29.8843C159.736 30.2365 159.912 30.4126 160.264 30.4126H171.886C172.239 30.4126 172.52 30.5535 172.732 30.8353C173.013 31.0466 173.154 31.3283 173.154 31.6805V44.2537C173.154 44.6059 173.013 44.9229 172.732 45.2046C172.52 45.416 172.239 45.5216 171.886 45.5216H160.264C159.912 45.5216 159.736 45.6977 159.736 46.0499V59.4684C159.736 59.8206 159.912 59.9967 160.264 59.9967H181.501C181.853 59.9967 182.135 60.1375 182.346 60.4193C182.628 60.6306 182.769 60.9124 182.769 61.2646V73.7321C182.769 74.0843 182.628 74.4013 182.346 74.683C182.135 74.8943 181.853 75 181.501 75H143.465C143.112 75 142.795 74.8943 142.514 74.683C142.302 74.4013 142.197 74.0843 142.197 73.7321V2.30779C142.197 1.9556 142.302 1.67384 142.514 1.46253C142.795 1.18078 143.112 1.0399 143.465 1.0399H181.501C181.853 1.0399 182.135 1.18078 182.346 1.46253C182.628 1.67384 182.769 1.9556 182.769 2.30779V14.7753ZM222.19 75C221.345 75 220.887 74.6126 220.816 73.8378L219.443 64.6456C219.443 64.2934 219.232 64.1173 218.809 64.1173H207.398C206.975 64.1173 206.764 64.2934 206.764 64.6456L205.496 73.8378C205.426 74.6126 204.968 75 204.123 75H189.119C188.204 75 187.851 74.5422 188.063 73.6265L203.383 2.20213C203.524 1.42731 203.982 1.0399 204.757 1.0399H221.979C222.753 1.0399 223.211 1.42731 223.352 2.20213L238.567 73.6265L238.673 74.0491C238.673 74.683 238.285 75 237.51 75H222.19ZM209.088 50.0649C209.088 50.4171 209.229 50.5932 209.511 50.5932H216.59C216.872 50.5932 217.013 50.4171 217.013 50.0649L213.209 25.975C213.139 25.6933 213.033 25.5524 212.892 25.5524C212.751 25.5524 212.646 25.6933 212.575 25.975L209.088 50.0649ZM281.698 1.0399C282.05 1.0399 282.332 1.18078 282.543 1.46253C282.825 1.67384 282.966 1.9556 282.966 2.30779V14.7753C282.966 15.1275 282.825 15.4445 282.543 15.7263C282.332 15.9376 282.05 16.0432 281.698 16.0432H268.597C268.244 16.0432 268.068 16.2193 268.068 16.5715V73.7321C268.068 74.0843 267.927 74.4013 267.646 74.683C267.434 74.8943 267.153 75 266.8 75H251.797C251.445 75 251.128 74.8943 250.846 74.683C250.635 74.4013 250.529 74.0843 250.529 73.7321V16.5715C250.529 16.2193 250.353 16.0432 250.001 16.0432H237.428C237.076 16.0432 236.759 15.9376 236.477 15.7263C236.266 15.4445 236.16 15.1275 236.16 14.7753V2.30779C236.16 1.9556 236.266 1.67384 236.477 1.46253C236.759 1.18078 237.076 1.0399 237.428 1.0399H281.698ZM290.188 75C289.836 75 289.519 74.8943 289.237 74.683C289.026 74.4013 288.92 74.0843 288.92 73.7321V2.30779C288.92 1.9556 289.026 1.67384 289.237 1.46253C289.519 1.18078 289.836 1.0399 290.188 1.0399H305.191C305.543 1.0399 305.825 1.18078 306.036 1.46253C306.318 1.67384 306.459 1.9556 306.459 2.30779V73.7321C306.459 74.0843 306.318 74.4013 306.036 74.683C305.825 74.8943 305.543 75 305.191 75H290.188ZM328.473 75C327.698 75 327.24 74.6126 327.099 73.8378L312.096 2.41344L311.99 1.99081C311.99 1.35687 312.378 1.0399 313.153 1.0399H329.53C330.375 1.0399 330.833 1.42731 330.903 2.20213L336.926 44.3594C336.996 44.6411 337.102 44.782 337.243 44.782C337.454 44.7116 337.559 44.5707 337.559 44.3594L343.159 2.20213C343.23 1.42731 343.688 1.0399 344.533 1.0399H360.487C361.403 1.0399 361.755 1.49775 361.544 2.41344L346.435 73.8378C346.294 74.6126 345.836 75 345.061 75H328.473ZM368.502 75C368.15 75 367.833 74.8943 367.551 74.683C367.34 74.4013 367.234 74.0843 367.234 73.7321V2.30779C367.234 1.9556 367.34 1.67384 367.551 1.46253C367.833 1.18078 368.15 1.0399 368.502 1.0399H383.506C383.858 1.0399 384.139 1.18078 384.351 1.46253C384.633 1.67384 384.773 1.9556 384.773 2.30779V73.7321C384.773 74.0843 384.633 74.4013 384.351 74.683C384.139 74.8943 383.858 75 383.506 75H368.502ZM436.16 1.0399C436.512 1.0399 436.794 1.18078 437.005 1.46253C437.287 1.67384 437.428 1.9556 437.428 2.30779V14.7753C437.428 15.1275 437.287 15.4445 437.005 15.7263C436.794 15.9376 436.512 16.0432 436.16 16.0432H423.059C422.706 16.0432 422.53 16.2193 422.53 16.5715V73.7321C422.53 74.0843 422.389 74.4013 422.108 74.683C421.896 74.8943 421.615 75 421.262 75H406.259C405.907 75 405.59 74.8943 405.308 74.683C405.097 74.4013 404.991 74.0843 404.991 73.7321V16.5715C404.991 16.2193 404.815 16.0432 404.463 16.0432H391.89C391.537 16.0432 391.22 15.9376 390.939 15.7263C390.727 15.4445 390.622 15.1275 390.622 14.7753V2.30779C390.622 1.9556 390.727 1.67384 390.939 1.46253C391.22 1.18078 391.537 1.0399 391.89 1.0399H436.16ZM458.068 74.7887C457.716 74.7887 457.399 74.683 457.117 74.4717C456.906 74.19 456.8 73.873 456.8 73.5208V47.5291L456.695 46.8952L441.903 2.5191C441.832 2.37823 441.797 2.20213 441.797 1.99081C441.797 1.35687 442.149 1.0399 442.854 1.0399H458.702C459.407 1.0399 459.864 1.42731 460.076 2.20213L465.359 25.4467C465.429 25.7285 465.535 25.8694 465.676 25.8694C465.816 25.8694 465.922 25.7285 465.993 25.4467L471.275 2.20213C471.487 1.42731 471.945 1.0399 472.649 1.0399H488.498C488.92 1.0399 489.202 1.18078 489.343 1.46253C489.554 1.67384 489.589 2.02604 489.448 2.5191L474.445 46.8952L474.339 47.5291V73.5208C474.339 73.873 474.199 74.19 473.917 74.4717C473.705 74.683 473.424 74.7887 473.072 74.7887H458.068ZM189.391 170.845C182.559 170.845 177.1 168.873 173.014 164.928C168.999 160.984 166.992 155.666 166.992 148.974V117.066C166.992 110.445 168.999 105.162 173.014 101.217C177.1 97.2021 182.559 95.1946 189.391 95.1946C196.153 95.1946 201.577 97.2021 205.662 101.217C209.818 105.162 211.896 110.445 211.896 117.066V148.974C211.896 155.666 209.818 160.984 205.662 164.928C201.577 168.873 196.153 170.845 189.391 170.845ZM189.391 155.842C190.941 155.842 192.138 155.314 192.984 154.257C193.899 153.13 194.357 151.616 194.357 149.714V116.326C194.357 114.424 193.899 112.945 192.984 111.888C192.138 110.761 190.941 110.198 189.391 110.198C187.842 110.198 186.644 110.761 185.799 111.888C184.954 112.945 184.531 114.424 184.531 116.326V149.714C184.531 151.616 184.954 153.13 185.799 154.257C186.644 155.314 187.842 155.842 189.391 155.842ZM232.979 170C232.204 170 231.746 169.613 231.605 168.838L216.602 97.4134L216.496 96.9908C216.496 96.3569 216.884 96.0399 217.659 96.0399H234.036C234.881 96.0399 235.339 96.4273 235.409 97.2021L241.432 139.359C241.502 139.641 241.608 139.782 241.749 139.782C241.96 139.712 242.066 139.571 242.066 139.359L247.665 97.2021C247.736 96.4273 248.194 96.0399 249.039 96.0399H264.993C265.909 96.0399 266.261 96.4977 266.05 97.4134L250.941 168.838C250.8 169.613 250.342 170 249.567 170H232.979ZM312.313 109.775C312.313 110.128 312.172 110.445 311.89 110.726C311.679 110.938 311.397 111.043 311.045 111.043H289.808C289.456 111.043 289.279 111.219 289.279 111.572V124.884C289.279 125.237 289.456 125.413 289.808 125.413H301.43C301.782 125.413 302.064 125.554 302.275 125.835C302.557 126.047 302.698 126.328 302.698 126.681V139.254C302.698 139.606 302.557 139.923 302.275 140.205C302.064 140.416 301.782 140.522 301.43 140.522H289.808C289.456 140.522 289.279 140.698 289.279 141.05V154.468C289.279 154.821 289.456 154.997 289.808 154.997H311.045C311.397 154.997 311.679 155.138 311.89 155.419C312.172 155.631 312.313 155.912 312.313 156.265V168.732C312.313 169.084 312.172 169.401 311.89 169.683C311.679 169.894 311.397 170 311.045 170H273.008C272.656 170 272.339 169.894 272.057 169.683C271.846 169.401 271.74 169.084 271.74 168.732V97.3078C271.74 96.9556 271.846 96.6738 272.057 96.4625C272.339 96.1808 272.656 96.0399 273.008 96.0399H311.045C311.397 96.0399 311.679 96.1808 311.89 96.4625C312.172 96.6738 312.313 96.9556 312.313 97.3078V109.775ZM347.223 170C346.448 170 345.955 169.648 345.743 168.943L338.559 140.944C338.488 140.662 338.312 140.522 338.03 140.522H336.446C336.093 140.522 335.917 140.698 335.917 141.05V168.732C335.917 169.084 335.776 169.401 335.495 169.683C335.283 169.894 335.002 170 334.649 170H319.646C319.294 170 318.977 169.894 318.695 169.683C318.484 169.401 318.378 169.084 318.378 168.732V97.3078C318.378 96.9556 318.484 96.6738 318.695 96.4625C318.977 96.1808 319.294 96.0399 319.646 96.0399H342.362C346.448 96.0399 350.075 97.026 353.245 98.9983C356.415 100.9 358.845 103.612 360.535 107.134C362.296 110.585 363.177 114.53 363.177 118.968C363.177 122.912 362.437 126.469 360.958 129.639C359.549 132.738 357.542 135.239 354.936 137.141C354.795 137.211 354.689 137.317 354.619 137.458C354.548 137.528 354.548 137.634 354.619 137.775L363.705 168.521L363.811 168.943C363.811 169.648 363.423 170 362.649 170H347.223ZM336.446 111.043C336.093 111.043 335.917 111.219 335.917 111.572V126.575C335.917 126.927 336.093 127.103 336.446 127.103H339.404C341.306 127.103 342.82 126.399 343.947 124.99C345.074 123.581 345.638 121.644 345.638 119.179C345.638 116.573 345.074 114.565 343.947 113.156C342.82 111.748 341.306 111.043 339.404 111.043H336.446ZM22.5365 265C22.1843 265 21.8674 264.894 21.5856 264.683C21.3743 264.401 21.2686 264.084 21.2686 263.732V192.308C21.2686 191.956 21.3743 191.674 21.5856 191.463C21.8674 191.181 22.1843 191.04 22.5365 191.04H37.5399C37.8921 191.04 38.1738 191.181 38.3851 191.463C38.6669 191.674 38.8077 191.956 38.8077 192.308V263.732C38.8077 264.084 38.6669 264.401 38.3851 264.683C38.1738 264.894 37.8921 265 37.5399 265H22.5365ZM80.5795 191.885C80.8613 191.322 81.3896 191.04 82.1644 191.04H96.8507C97.2029 191.04 97.4847 191.181 97.696 191.463C97.9778 191.674 98.1186 191.956 98.1186 192.308V263.732C98.1186 264.084 97.9778 264.401 97.696 264.683C97.4847 264.894 97.2029 265 96.8507 265H81.8474C81.4952 265 81.1782 264.894 80.8965 264.683C80.6852 264.401 80.5795 264.084 80.5795 263.732V218.405C80.5795 218.123 80.5091 217.983 80.3682 217.983C80.2273 217.912 80.0865 217.983 79.9456 218.194L72.5496 231.084C72.2678 231.648 72.0565 231.929 71.9156 231.929C71.7747 231.929 71.5282 231.648 71.176 231.084L63.78 218.194C63.6391 217.983 63.4983 217.877 63.3574 217.877C63.2165 217.877 63.1461 218.018 63.1461 218.299V263.732C63.1461 264.084 63.0052 264.401 62.7234 264.683C62.5121 264.894 62.2304 265 61.8782 265H46.8748C46.5227 265 46.2057 264.894 45.9239 264.683C45.7126 264.401 45.607 264.084 45.607 263.732V192.308C45.607 191.956 45.7126 191.674 45.9239 191.463C46.2057 191.181 46.5227 191.04 46.8748 191.04H61.6669C62.3712 191.04 62.8995 191.322 63.2517 191.885L71.7043 207.205C71.9156 207.487 72.1269 207.487 72.3383 207.205L80.5795 191.885ZM137.066 265C136.22 265 135.763 264.613 135.692 263.838L134.319 254.646C134.319 254.293 134.107 254.117 133.685 254.117H122.274C121.851 254.117 121.64 254.293 121.64 254.646L120.372 263.838C120.301 264.613 119.844 265 118.998 265H103.995C103.079 265 102.727 264.542 102.938 263.626L118.259 192.202C118.4 191.427 118.857 191.04 119.632 191.04H136.854C137.629 191.04 138.087 191.427 138.228 192.202L153.443 263.626L153.548 264.049C153.548 264.683 153.161 265 152.386 265H137.066ZM123.964 240.065C123.964 240.417 124.105 240.593 124.387 240.593H131.466C131.748 240.593 131.889 240.417 131.889 240.065L128.085 215.975C128.014 215.693 127.909 215.552 127.768 215.552C127.627 215.552 127.521 215.693 127.451 215.975L123.964 240.065ZM177.673 265.845C170.981 265.845 165.628 263.979 161.613 260.245C157.598 256.442 155.59 251.37 155.59 245.031V210.903C155.59 204.564 157.598 199.528 161.613 195.794C165.628 192.061 170.981 190.195 177.673 190.195C184.364 190.195 189.718 192.096 193.733 195.9C197.818 199.704 199.861 204.775 199.861 211.115V215.024C199.861 215.376 199.72 215.693 199.438 215.975C199.227 216.186 198.945 216.292 198.593 216.292H183.59C183.237 216.292 182.92 216.186 182.639 215.975C182.427 215.693 182.322 215.376 182.322 215.024V210.903C182.322 209.213 181.899 207.839 181.054 206.783C180.209 205.726 179.082 205.198 177.673 205.198C176.334 205.198 175.243 205.726 174.397 206.783C173.552 207.839 173.13 209.213 173.13 210.903V245.136C173.13 246.827 173.552 248.2 174.397 249.257C175.243 250.314 176.334 250.842 177.673 250.842C179.082 250.842 180.209 250.314 181.054 249.257C181.899 248.2 182.322 246.827 182.322 245.136V238.374C182.322 238.022 182.146 237.846 181.793 237.846H179.046C178.694 237.846 178.377 237.74 178.095 237.529C177.884 237.247 177.778 236.93 177.778 236.578V225.379C177.778 225.026 177.884 224.745 178.095 224.533C178.377 224.252 178.694 224.111 179.046 224.111H198.593C198.945 224.111 199.227 224.252 199.438 224.533C199.72 224.745 199.861 225.026 199.861 225.379V245.031C199.861 251.37 197.818 256.442 193.733 260.245C189.718 263.979 184.364 265.845 177.673 265.845ZM207.643 265C207.291 265 206.974 264.894 206.692 264.683C206.481 264.401 206.375 264.084 206.375 263.732V192.308C206.375 191.956 206.481 191.674 206.692 191.463C206.974 191.181 207.291 191.04 207.643 191.04H222.646C222.999 191.04 223.28 191.181 223.492 191.463C223.773 191.674 223.914 191.956 223.914 192.308V263.732C223.914 264.084 223.773 264.401 223.492 264.683C223.28 264.894 222.999 265 222.646 265H207.643ZM261.671 192.308C261.671 191.956 261.777 191.674 261.988 191.463C262.27 191.181 262.587 191.04 262.939 191.04H277.731C278.083 191.04 278.365 191.181 278.576 191.463C278.858 191.674 278.999 191.956 278.999 192.308V263.732C278.999 264.084 278.858 264.401 278.576 264.683C278.365 264.894 278.083 265 277.731 265H260.932C260.157 265 259.664 264.648 259.452 263.943L248.992 227.175C248.922 226.963 248.781 226.858 248.57 226.858C248.429 226.787 248.358 226.893 248.358 227.175L248.57 263.732C248.57 264.084 248.429 264.401 248.147 264.683C247.936 264.894 247.654 265 247.302 265H232.51C232.158 265 231.841 264.894 231.559 264.683C231.348 264.401 231.242 264.084 231.242 263.732V192.308C231.242 191.956 231.348 191.674 231.559 191.463C231.841 191.181 232.158 191.04 232.51 191.04H249.098C249.873 191.04 250.366 191.392 250.577 192.096L261.143 229.077C261.213 229.288 261.319 229.393 261.46 229.393C261.671 229.393 261.777 229.253 261.777 228.971L261.671 192.308ZM318.458 265C317.613 265 317.155 264.613 317.084 263.838L315.711 254.646C315.711 254.293 315.499 254.117 315.077 254.117H303.666C303.243 254.117 303.032 254.293 303.032 254.646L301.764 263.838C301.694 264.613 301.236 265 300.39 265H285.387C284.471 265 284.119 264.542 284.331 263.626L299.651 192.202C299.792 191.427 300.25 191.04 301.024 191.04H318.247C319.021 191.04 319.479 191.427 319.62 192.202L334.835 263.626L334.94 264.049C334.94 264.683 334.553 265 333.778 265H318.458ZM305.356 240.065C305.356 240.417 305.497 240.593 305.779 240.593H312.858C313.14 240.593 313.281 240.417 313.281 240.065L309.477 215.975C309.407 215.693 309.301 215.552 309.16 215.552C309.019 215.552 308.913 215.693 308.843 215.975L305.356 240.065ZM377.966 191.04C378.318 191.04 378.6 191.181 378.811 191.463C379.093 191.674 379.234 191.956 379.234 192.308V204.775C379.234 205.128 379.093 205.445 378.811 205.726C378.6 205.938 378.318 206.043 377.966 206.043H364.864C364.512 206.043 364.336 206.219 364.336 206.572V263.732C364.336 264.084 364.195 264.401 363.914 264.683C363.702 264.894 363.42 265 363.068 265H348.065C347.713 265 347.396 264.894 347.114 264.683C346.903 264.401 346.797 264.084 346.797 263.732V206.572C346.797 206.219 346.621 206.043 346.269 206.043H333.696C333.343 206.043 333.026 205.938 332.745 205.726C332.533 205.445 332.428 205.128 332.428 204.775V192.308C332.428 191.956 332.533 191.674 332.745 191.463C333.026 191.181 333.343 191.04 333.696 191.04H377.966ZM386.456 265C386.104 265 385.787 264.894 385.505 264.683C385.293 264.401 385.188 264.084 385.188 263.732V192.308C385.188 191.956 385.293 191.674 385.505 191.463C385.787 191.181 386.104 191.04 386.456 191.04H401.459C401.811 191.04 402.093 191.181 402.304 191.463C402.586 191.674 402.727 191.956 402.727 192.308V263.732C402.727 264.084 402.586 264.401 402.304 264.683C402.093 264.894 401.811 265 401.459 265H386.456ZM431.608 265.845C424.776 265.845 419.317 263.873 415.232 259.928C411.217 255.984 409.209 250.666 409.209 243.974V212.066C409.209 205.445 411.217 200.162 415.232 196.217C419.317 192.202 424.776 190.195 431.608 190.195C438.371 190.195 443.794 192.202 447.88 196.217C452.036 200.162 454.113 205.445 454.113 212.066V243.974C454.113 250.666 452.036 255.984 447.88 259.928C443.794 263.873 438.371 265.845 431.608 265.845ZM431.608 250.842C433.158 250.842 434.356 250.314 435.201 249.257C436.117 248.13 436.574 246.616 436.574 244.714V211.326C436.574 209.424 436.117 207.945 435.201 206.888C434.356 205.761 433.158 205.198 431.608 205.198C430.059 205.198 428.861 205.761 428.016 206.888C427.171 207.945 426.748 209.424 426.748 211.326V244.714C426.748 246.616 427.171 248.13 428.016 249.257C428.861 250.314 430.059 250.842 431.608 250.842ZM491.042 192.308C491.042 191.956 491.148 191.674 491.359 191.463C491.641 191.181 491.958 191.04 492.31 191.04H507.102C507.454 191.04 507.736 191.181 507.948 191.463C508.229 191.674 508.37 191.956 508.37 192.308V263.732C508.37 264.084 508.229 264.401 507.948 264.683C507.736 264.894 507.454 265 507.102 265H490.303C489.528 265 489.035 264.648 488.824 263.943L478.363 227.175C478.293 226.963 478.152 226.858 477.941 226.858C477.8 226.787 477.73 226.893 477.73 227.175L477.941 263.732C477.941 264.084 477.8 264.401 477.518 264.683C477.307 264.894 477.025 265 476.673 265H461.881C461.529 265 461.212 264.894 460.93 264.683C460.719 264.401 460.613 264.084 460.613 263.732V192.308C460.613 191.956 460.719 191.674 460.93 191.463C461.212 191.181 461.529 191.04 461.881 191.04H478.469C479.244 191.04 479.737 191.392 479.948 192.096L490.514 229.077C490.584 229.288 490.69 229.393 490.831 229.393C491.042 229.393 491.148 229.253 491.148 228.971L491.042 192.308Z" fill="white"/>
</g>
<defs>
<filter id="filter0_d_1_5" x="0.137188" y="0.194641" width="529.364" height="307.914" filterUnits="userSpaceOnUse" color-interpolation-filters="sRGB">
<feFlood flood-opacity="0" result="BackgroundImageFix"/>
<feColorMatrix in="SourceAlpha" type="matrix" values="0 0 0 0 0 0 0 0 0 0 0 0 0 0 0 0 0 0 127 0" result="hardAlpha"/>
<feOffset dy="21.1315"/>
<feGaussianBlur stdDeviation="10.5657"/>
<feComposite in2="hardAlpha" operator="out"/>
<feColorMatrix type="matrix" values="0 0 0 0 0 0 0 0 0 0 0 0 0 0 0 0 0 0 0.25 0"/>
<feBlend mode="normal" in2="BackgroundImageFix" result="effect1_dropShadow_1_5"/>
<feBlend mode="normal" in="SourceGraphic" in2="effect1_dropShadow_1_5" result="shape"/>
</filter>
</defs>
</svg>
